<?xml version="1.0" encoding="UTF-8"?>
<svg version="1.1" xmlns="http://www.w3.org/2000/svg" width="50" height="50">
<path d="M0 0 C3.60561914 1.5299072 5.9859199 3.68696932 8.75 6.4375 C9.54921875 7.21996094 10.3484375 8.00242187 11.171875 8.80859375 C13 11 13 11 13 14 C9 13 9 13 3 7 C2.67 16.24 2.34 25.48 2 35 C1.34 35 0.68 35 0 35 C-0.33 25.76 -0.66 16.52 -1 7 C-3.31 9.31 -5.62 11.62 -8 14 C-8.99 14 -9.98 14 -11 14 C-10.52590352 9.68269587 -7.96603297 7.66352539 -4.9375 4.75 C-4.01839844 3.85796875 -3.09929688 2.9659375 -2.15234375 2.046875 C-1.44207031 1.37140625 -0.73179688 0.6959375 0 0 Z " fill="#A1A1A1" transform="translate(24,7)"/>
</svg>
